<svg width="100" height="100" viewBox="0 0 100 100" fill="none" xmlns="http://www.w3.org/2000/svg">
<g clip-path="url(#clip0_2047_324)">
<circle cx="50" cy="50" r="50" fill="#D9D9D9"/>
<g clip-path="url(#clip1_2047_324)">
<path d="M76.5082 30.6948V60.0138H14V70.2728H20.0451C19.8381 70.8345 19.7249 71.4411 19.7249 72.0738C19.7249 74.9538 22.0678 77.2968 24.9477 77.2968C27.8275 77.2968 30.1705 74.9538 30.1705 72.0738C30.1705 71.4411 30.0573 70.8345 29.8503 70.2728H64.9352C64.7282 70.8345 64.615 71.4411 64.615 72.0738C64.615 74.9538 66.9579 77.2968 69.8378 77.2968C72.7178 77.2968 75.0608 74.9538 75.0608 72.0738C75.0608 71.4411 74.9476 70.8345 74.7406 70.2728H80.7856V34.9722H86.0001V30.6948H76.5082Z" fill="black"/>
<path d="M37.8182 41.3584V46.3233H33.5408V41.3584H26.1045V55.7363H45.2546V41.3584H37.8182Z" fill="black"/>
<path d="M61.2451 41.3584V46.3233H56.9677V41.3584H49.5312V55.7363H68.6815V41.3584H61.2451Z" fill="black"/>
<path d="M49.5312 22.7031V27.6682H45.2538V22.7031H37.8174V37.0811H45.2538H49.5312H56.9676V22.7031H49.5312Z" fill="black"/>
</g>
</g>
<defs>
<clipPath id="clip0_2047_324">
<rect width="100" height="100" fill="white"/>
</clipPath>
<clipPath id="clip1_2047_324">
<rect width="72" height="72" fill="white" transform="translate(14 14)"/>
</clipPath>
</defs>
</svg>
