<?xml version="1.0" encoding="UTF-8"?>
<svg id="Layer_2" data-name="Layer 2" xmlns="http://www.w3.org/2000/svg" viewBox="0 0 668.1 190.6">
  <defs>
    <style>
      .cls-1, .cls-2 {
        stroke-width: 0px;
      }

      .cls-2 {
        fill: #687657;
      }
    </style>
  </defs>
  <g id="Layer_1-2" data-name="Layer 1">
    <g id="Full_Logo" data-name="Full Logo">
      <path class="cls-1" d="m492.88,53.48c-24.23-2.33-48.43-4.65-72.67-6.98.24-.54.65-.43.98-.46,1.79-.14,3.59-.28,5.38-.4,5.92-.41,11.85-.79,17.77-1.21,5.86-.42,11.72-.87,17.58-1.29,4.19-.3,8.38-.55,12.56-.85,4.13-.29,8.25-.62,12.38-.91,3.05-.22,6.1-.39,9.15-.62.66-.05,1.17.11,1.6.6.24.27.5.51.76.77,20.07,20.05,40.13,40.1,60.2,60.15.13.13.27.24.38.38.64.83,1.5,1.06,2.52,1.08,4.92.06,9.83.17,14.75.27,11.39.23,22.78.47,34.18.71,9.17.19,18.35.39,27.52.59.48.01.96,0,1.33,0,.7.51.77,1.2,1,1.8,3.46,9.26,6.91,18.53,10.36,27.79,5.72,15.39,11.44,30.78,17.16,46.17.12.33.22.67.34,1.05-.53.04-.56-.42-.7-.66-10.11-17.56-20.2-35.13-30.29-52.7-1.58-2.75-3.16-5.51-4.75-8.26-.3-.51-.62-1.01-.98-1.61-12.84.16-25.66.53-38.49.79-12.77.26-25.54.54-38.37.82-20.56-22.35-41.09-44.68-61.64-67.02Z"/>
      <path class="cls-1" d="m306.79,184.43c3.17-.59,6.41-.57,9.64-.66,6.95-.19,13.91-.39,20.86-.58,7.55-.2,15.11-.37,22.66-.58,10.85-.3,21.7-.63,32.55-.93,6.95-.19,13.91-.33,20.86-.52,10.73-.29,21.46-.63,32.19-.92,6.89-.19,13.79-.32,20.68-.51,10.79-.3,21.58-.63,32.37-.93,6.95-.19,13.91-.33,20.86-.52,5.58-.15,11.15-.33,16.72-.5.53-.02,1.06-.09,1.63-.13,4.34-11.73,12-20.42,23.32-25.7,9.59-4.47,19.59-5.34,29.83-2.67,10.04,2.63,18.18,8.19,24.39,16.51,4.77,6.39,8.48,16.19,8.22,21.59-.88-2.25-1.67-4.42-2.58-6.55-.9-2.1-2.08-4.05-3.37-5.93-1.33-1.93-2.81-3.74-4.45-5.41-1.6-1.63-3.32-3.12-5.17-4.46-1.89-1.38-3.89-2.59-5.99-3.62-2.05-1.01-4.16-1.84-6.35-2.49-2.24-.67-4.53-1.16-6.86-1.42-2.27-.26-4.54-.41-6.82-.27-9.41.59-17.74,3.86-24.86,10.07-7.07,6.17-11.4,13.95-13.29,23.12-.7.29-1.36.17-2,.15-3.72-.09-7.43-.21-11.15-.31-9.11-.25-18.22-.48-27.34-.72-9.05-.24-18.1-.48-27.16-.72-9.05-.24-18.1-.48-27.16-.72-9.05-.24-18.1-.48-27.16-.72-9.11-.24-18.22-.48-27.34-.72-9.05-.24-18.1-.48-27.16-.72-9.05-.24-18.1-.47-27.16-.72-9.17-.25-18.34-.53-27.51-.77-1.98-.05-3.95,0-5.93,0Z"/>
      <path class="cls-1" d="m392.82.08c.13.38.26.71.35,1.05,12.77,52.39,25.53,104.77,38.09,157.22-.23-.58-.48-1.16-.68-1.75-12.17-35.99-24.33-71.98-36.49-107.98-4.11-12.15-8.2-24.3-12.31-36.45-.04-.11-.1-.22-.12-.34-.19-1.03-.77-1.42-1.84-1.58-5.99-.85-11.97-1.81-17.96-2.72-5.1-.77-10.19-1.53-15.29-2.3-3.31-.5-6.63-1.02-10.31-1.59.62-.21.91-.37,1.21-.39,2.09-.15,4.19-.27,6.28-.39,4.97-.29,9.94-.56,14.91-.85,5.03-.3,10.06-.62,15.08-.92,2.15-.13,4.31-.26,6.47-.39,4.01-.23,8.02-.47,12.03-.69.12,0,.24.03.56.08Z"/>
      <path class="cls-1" d="m360.77,159.04c-6.72,0-13.43,0-20.15,0-1.38,0-2.75-.06-4.1-.45-4.99-1.44-8.53-5.93-8.7-11.13-.03-.84-.01-1.68-.01-2.52,0-8.99,0-17.99,0-26.98,0-1.32.07-2.63.42-3.92,1.39-5.12,6.15-8.81,11.4-8.8,9.41.01,18.83.03,28.24.03,4.62,0,9.24.02,13.85-.04,4.87-.06,10.29,3.39,11.61,9.45.24,1.12.31,2.25.27,3.4-.04,1.08.02,2.16-.03,3.24-.05,1.09-.49,1.57-1.52,1.63-1.08.05-2.16.05-3.24,0-.93-.05-1.4-.54-1.45-1.5-.06-1.02-.05-2.04-.03-3.06.06-2.87-1.97-6.02-5.6-6.78-.58-.12-1.19-.15-1.79-.15-12.83,0-25.67,0-38.5-.01-1.74,0-3.33.41-4.71,1.48-1.71,1.32-2.59,3.11-2.75,5.25-.03.36-.01.72-.01,1.08,0,8.63,0,17.27,0,25.9,0,.77.06,1.56.24,2.31.7,2.94,3.07,5.01,6.07,5.33.65.07,1.32.07,1.98.07,12.29,0,24.59,0,36.88,0,.95,0,1.92-.07,2.85-.26,2.96-.62,5.28-3.4,5.32-6.44.02-1.92.03-3.84,0-5.76-.02-1.15-.34-1.43-1.54-1.49-.48-.03-.96,0-1.44,0-8.1,0-16.19,0-24.29,0-.54,0-1.08,0-1.62-.06-.59-.07-1.02-.47-1.05-1.06-.05-1.32-.06-2.64,0-3.95.03-.59.5-.95,1.08-1.06.35-.07.72-.05,1.08-.05,10.61,0,21.23,0,31.84,0,.18,0,.36,0,.54,0,1.14.07,1.57.51,1.64,1.69.02.3,0,.6,0,.9,0,3.96.08,7.92.02,11.87-.12,7.15-5.86,11.58-11.07,11.82-.72.03-1.44.05-2.16.05-3.3,0-6.6,0-9.89,0-3.24,0-6.48,0-9.71,0Z"/>
      <path class="cls-2" d="m444.47,76.6c.13.53.22,1,.36,1.44,3.55,10.75,10.81,31.17,11.63,32.69.47.1.99.26,1.52.32,2.74.29,5.48.53,8.22.82,2.74.29,5.47.64,8.2.95,1.49.17,2.98.29,4.47.45,1.79.19,3.57.4,5.35.6,1.25.14,2.5.29,3.75.42,2.74.28,5.48.52,8.22.82,2.74.29,5.47.64,8.2.95,1.55.17,3.1.3,4.65.47,1.73.18,3.45.39,5.17.58,1.55.17,3.1.33,4.64.48,1.37.14,2.73.27,4.13.57-.16.04-.32.12-.49.12-2.52.1-5.03.2-7.55.3-5.15.21-10.3.42-15.45.63-.12,0-.24.01-.36.02-5.09.16-10.19.29-15.28.48-4.37.16-8.74.39-13.11.58-.42.02-.84.03-1.26.04-5.03.15-10.07.3-15.1.47-1.74.06-3.47.2-5.21.28-.78.04-1.55,0-2.44,0-2.12-6.05-4.04-12.15-6.08-18.2-2.02-6.01-3.97-12.04-5.96-18.06-2.01-6.07-4.03-12.14-6.08-18.34.42-.03.69-.09.97-.07,3.29.24,6.57.49,9.86.73,2.27.16,4.54.28,6.82.45,2.33.17,4.66.38,6.98.57.36.03.72.07,1.07.09,2.99.23,5.97.46,8.96.68,2.27.16,4.54.29,6.81.45,2.33.17,4.66.38,6.98.57.36.03.72.07,1.07.1,2.99.23,5.97.46,8.96.68.95.07,1.91.08,2.88.13-.08.43-.4.46-.68.49-2.62.28-5.24.54-7.86.84-2.56.29-5.11.65-7.66.95-2.56.3-5.12.55-7.68.84-2.56.3-5.11.62-7.66.93-1.19.14-2.38.29-3.57.42-2.56.28-5.12.53-7.68.82-.89.1-1.76.28-2.73.44Z"/>
      <path class="cls-2" d="m106.79,80.44c-6.89,0-13.79.01-20.68,0-3.11,0-5.88-.99-8.21-3.08-2.75-2.47-4.02-5.61-4.04-9.26-.03-5.33,0-10.67,0-16,0-4.38-.02-8.75,0-13.13.02-3.51,1.21-6.56,3.78-9.02,2.32-2.21,5.13-3.3,8.3-3.3,13.37-.02,26.73.01,40.1,0,1.68,0,3.34.03,4.97.5,5.51,1.57,8.64,6.9,8.59,11.54-.1,9.89-.09,19.78,0,29.67.05,5-3.48,10.52-9.46,11.76-1.13.23-2.25.31-3.39.31-6.65,0-13.31,0-19.96,0Zm.04-47.56h0c-6.6,0-13.2.07-19.79-.04-3.35-.06-6.78,2.82-6.93,6.43-.04,1.02-.13,2.04-.13,3.05-.01,7.5-.01,14.99,0,22.49,0,1.08.06,2.16.16,3.23.27,2.86,2.42,5.34,5.2,5.97.93.21,1.9.3,2.85.3,6.06.03,12.12.01,18.18.01,6.42,0,12.84,0,19.26,0,1.15,0,2.27-.13,3.34-.55,2.81-1.09,4.53-3.56,4.53-6.69.02-9.06,0-18.11.01-27.17.01-4.32-3.79-7.2-7.24-7.1-6.47.18-12.96.05-19.43.05Z"/>
      <path class="cls-1" d="m280.1,159.04c-6.66,0-13.31,0-19.97,0-1.32,0-2.63-.04-3.92-.39-5.11-1.39-8.7-5.83-8.96-11.12-.01-.3-.01-.6-.01-.9,0-9.65,0-19.3,0-28.95,0-1.52.2-2.99.7-4.41,1.92-5.47,7.11-8.06,11.43-8.04,13.85.08,27.7.11,41.55,0,6.31-.05,12.17,5.14,12.14,12.06-.04,9.89-.06,19.78,0,29.67.04,6.37-5.06,11.77-11.21,12.05-.72.03-1.44.04-2.16.04-6.54,0-13.07,0-19.61,0Zm.03-6.18c5.99,0,11.99,0,17.98,0,.72,0,1.44,0,2.16-.05,4.2-.3,6.68-3.81,6.61-7.17-.08-3.83-.02-7.67-.02-11.51,0-5.15-.05-10.31.03-15.46.04-2.69-1.59-6.23-5.7-7.09-.64-.13-1.31-.14-1.97-.14-12.71,0-25.41,0-38.12,0-.3,0-.6,0-.9.01-3.41.19-6.12,2.65-6.6,6.02-.12.83-.18,1.67-.18,2.51-.01,8.09-.01,16.18,0,24.27,0,.9.05,1.8.2,2.68.47,2.79,2.13,4.61,4.78,5.55,1.09.39,2.24.38,3.38.38,6.11,0,12.23,0,18.34,0Z"/>
      <path class="cls-2" d="m295.76,53.45c0-7.98,0-15.95,0-23.93,0-.54-.01-1.08.03-1.62.06-.7.44-1.12,1.11-1.2.47-.06.96-.03,1.44-.03,12.9,0,25.79,0,38.69,0,1.26,0,2.5-.01,3.76.17,3.97.57,8.32,3.66,9.65,8.81.27,1.05.39,2.11.37,3.2-.04,2.28-.02,4.56,0,6.84.03,5.92-4.06,10.9-9.89,11.97-.76.14-1.55.12-2.33.12-3.12.01-6.24,0-9.36,0-.48,0-.96-.01-1.44.04-.5.05-.93.29-1.08.81-.12.43,0,.83.33,1.15.39.37.77.75,1.18,1.11,6.12,5.48,12.24,10.96,18.36,16.45.36.32.73.63,1.04.99.59.72.27,1.76-.63,2.01-.34.1-.71.08-1.07.09-1.14.01-2.28-.07-3.42.02-1.25.1-2.18-.36-3.05-1.2-1.21-1.16-2.49-2.25-3.74-3.37-6.21-5.56-12.42-11.13-18.63-16.69-.13-.12-.28-.23-.4-.36-.73-.8-1.61-1.1-2.72-1.07-3.24.07-6.48.02-9.72.02-.18,0-.36,0-.54,0-1.58.05-1.86.31-1.86,1.93-.01,6,0,12,0,17.99,0,.48.02.96-.04,1.44-.09.71-.6,1.22-1.31,1.25-1.14.05-2.28.05-3.42,0-.8-.03-1.2-.45-1.27-1.23-.05-.54-.03-1.08-.03-1.62,0-8.04,0-16.07,0-24.11Zm25.22-20.57h0c-5.57,0-11.14,0-16.71,0-.48,0-.96,0-1.44.03-.58.05-.88.34-.94.9-.05.41-.05.84-.05,1.26,0,4.79,0,9.58,0,14.38,0,.3,0,.6.01.9.07.89.43,1.27,1.35,1.35.48.04.96.02,1.44.02,10.54,0,21.09,0,31.63,0,.42,0,.84,0,1.26,0,3.78-.16,6.86-2.65,7.16-6.87.12-1.73.11-3.48,0-5.21-.27-4.09-3.23-6.75-7.35-6.75-5.45,0-10.9,0-16.35,0Z"/>
      <path class="cls-2" d="m252.06,26.67c.54,0,1.09.06,1.62-.01,1.17-.15,1.87.35,2.45,1.36,2.14,3.68,4.35,7.31,6.54,10.95,7.71,12.84,15.42,25.68,23.13,38.51.22.36.46.71.64,1.08.4.84-.1,1.71-1.04,1.84-.35.05-.72.03-1.08.03-.96,0-1.92,0-2.88,0-.59,0-1.04-.26-1.38-.71-.28-.38-.52-.8-.77-1.21-2.01-3.33-4.02-6.67-6.03-10-.22-.36-.43-.72-.67-1.07-.25-.37-.61-.56-1.06-.57-.42,0-.84-.02-1.26-.02-12.17,0-24.34,0-36.52,0-.06,0-.12,0-.18,0-1.91.01-1.92,0-2.87,1.58-1.95,3.23-3.89,6.47-5.83,9.7-.12.21-.24.41-.37.62q-1.01,1.68-2.98,1.68c-.9,0-1.8.04-2.7-.02-1.25-.07-1.73-1.01-1.15-2.14.16-.32.36-.62.54-.93,9.78-16.28,19.56-32.55,29.32-48.83,1.17-1.95,1.26-1.88,3.26-1.85.42,0,.84,0,1.26,0Zm-.04,34.05c4.38,0,8.75,0,13.13,0,.48,0,.96.02,1.44-.02.96-.1,1.36-.79.96-1.65-.12-.27-.28-.53-.44-.78-4.6-7.65-9.19-15.29-13.79-22.94-.15-.26-.3-.52-.49-.75-.49-.6-1.17-.61-1.68,0-.3.37-.54.79-.79,1.2-1.49,2.46-2.97,4.92-4.45,7.39-2.94,4.87-5.87,9.75-8.8,14.62-.25.41-.51.82-.68,1.26-.34.87.1,1.57,1.02,1.65.48.04.96.02,1.44.02,4.38,0,8.75,0,13.13,0Z"/>
      <path class="cls-2" d="m183.6,80.44c-.6,0-1.2-.01-1.8,0-.74.02-1.25-.32-1.63-.92-.19-.3-.38-.61-.56-.92-9.74-16.23-19.48-32.46-29.22-48.69-.28-.46-.57-.92-.79-1.41-.36-.79.06-1.59.91-1.78.29-.06.59-.05.89-.05.84,0,1.69.07,2.52-.02,1.26-.14,1.95.44,2.56,1.5,1.85,3.22,3.8,6.38,5.71,9.56,6.54,10.89,13.07,21.78,19.61,32.66.31.51.61,1.04.99,1.5.52.63,1.35.63,1.86-.01.41-.51.74-1.09,1.08-1.65,6.5-10.84,12.99-21.68,19.49-32.52,1.82-3.03,3.63-6.06,5.45-9.09.22-.36.43-.72.66-1.07.35-.53.84-.85,1.49-.85,1.26,0,2.52-.05,3.78.02,1.19.07,1.66.95,1.15,2.01-.18.38-.4.73-.62,1.09-9.79,16.27-19.57,32.54-29.36,48.81-.06.1-.14.2-.19.31-.49,1.24-1.42,1.7-2.71,1.54-.41-.05-.84,0-1.26,0h0Z"/>
      <path class="cls-2" d="m31.15,26.67c9.54,0,19.07,0,28.61,0,.42,0,.85-.03,1.26.03.63.09,1.09.58,1.11,1.23.04,1.14.05,2.28.01,3.42-.02.83-.48,1.34-1.3,1.47-.53.08-1.08.06-1.61.06-7.5,0-14.99,0-22.49,0-.54,0-1.08.01-1.62.04-.49.03-.79.36-.87.78-.11.52-.12,1.07-.12,1.61,0,3.18,0,6.36,0,9.54,0,10.97,0,21.95,0,32.92,0,.48.02.96-.02,1.44-.05.65-.49,1.16-1.13,1.19-1.2.05-2.4.06-3.6.01-.73-.03-1.21-.54-1.27-1.26-.04-.54-.02-1.08-.02-1.62,0-13.97,0-27.95,0-41.92,0-.6,0-1.2-.06-1.79-.06-.54-.41-.86-.95-.9-.54-.04-1.08-.03-1.62-.03-7.44,0-14.87,0-22.31,0-.54,0-1.08.03-1.62-.03-.86-.1-1.42-.67-1.47-1.55-.06-1.02-.06-2.04,0-3.06.05-1.01.59-1.51,1.6-1.57.3-.02.6,0,.9,0,9.54,0,19.07,0,28.61,0Z"/>
      <path class="cls-1" d="m184.19,131.97c0-7.97,0-15.95,0-23.92,0-.54-.01-1.08.05-1.62.08-.69.51-1.12,1.17-1.14,1.26-.04,2.52-.04,3.78,0,.71.02,1.09.43,1.15,1.14.04.48.01.96.01,1.44,0,13.97,0,27.94,0,41.91,0,.6-.02,1.2.04,1.8.08.8.47,1.19,1.26,1.26.6.05,1.2.03,1.8.03,13.61,0,27.22,0,40.83,0,.48,0,.96-.03,1.44.03.56.06,1.02.51,1.03,1.08.04,1.26.04,2.52.01,3.78-.02.69-.41,1.11-1.1,1.22-.47.08-.95.08-1.43.08-15.83,0-31.66,0-47.49.02-2.34,0-2.58-.62-2.57-2.62.03-8.15.01-16.31.01-24.46Z"/>
    </g>
  </g>
</svg>