<svg width="100" height="100" viewBox="0 0 100 100" fill="none" xmlns="http://www.w3.org/2000/svg">
<g clip-path="url(#clip0_2047_425)">
<circle cx="50" cy="50" r="50" fill="#D9D9D9"/>
<path d="M26 29C26 27.3432 27.3432 26 29 26H50C51.6569 26 53 27.3432 53 29V77H26V29Z" stroke="black" stroke-width="6" stroke-linecap="round" stroke-linejoin="round"/>
<path d="M53 48.5H68V71C68 74.3138 70.6862 77 74 77C77.3138 77 80 74.3138 80 71V41M80 41V32L75.5 28M80 41H75.5V28M66.5 20L75.5 28" stroke="black" stroke-width="6" stroke-linecap="round" stroke-linejoin="round"/>
<path d="M59 77H20" stroke="black" stroke-width="6" stroke-linecap="round" stroke-linejoin="round"/>
<path d="M44 38H35" stroke="black" stroke-width="6" stroke-linecap="round" stroke-linejoin="round"/>
</g>
<defs>
<clipPath id="clip0_2047_425">
<rect width="100" height="100" fill="white"/>
</clipPath>
</defs>
</svg>
