<svg width="100" height="100" viewBox="0 0 100 100" fill="none" xmlns="http://www.w3.org/2000/svg">
<g clip-path="url(#clip0_2046_185)">
<circle cx="50" cy="50" r="50" fill="#D9D9D9"/>
<path d="M50.0001 41.9307C52.5855 41.9307 54.6888 39.8275 54.6888 37.2421C54.6888 34.6565 52.5855 32.5532 50.0001 32.5532C47.4147 32.5532 45.3115 34.6565 45.3115 37.2421C45.3115 39.8275 47.4147 41.9307 50.0001 41.9307Z" fill="black"/>
<path d="M49.3602 53.2301C49.5662 53.3736 49.7835 53.4428 50.0185 53.4428C50.8312 53.4428 51.8555 52.6144 53.3488 51.1606C54.5601 49.9815 55.741 48.6745 55.9502 48.4205C59.0639 44.6467 60.6498 39.8404 60.1926 35.5638V35.5636C60.1545 35.2078 60.1019 34.8501 60.0362 34.4996C59.6256 32.3202 58.2979 30.3166 56.2981 28.8582C54.436 27.5003 52.1052 26.7217 49.9035 26.7217C49.9032 26.7217 49.903 26.7217 49.903 26.7217C46.8443 26.7217 44.0975 27.9701 42.1688 30.2372C40.2058 32.5444 39.3692 35.6501 39.8738 38.7578C40.788 44.3904 44.2458 49.6652 49.3602 53.2301ZM50.0001 30.6548C53.6321 30.6548 56.5872 33.6098 56.5872 37.2421C56.5872 40.8742 53.6321 43.8291 50.0001 43.8291C46.368 43.8291 43.4131 40.8742 43.4131 37.2421C43.4131 33.6096 46.368 30.6548 50.0001 30.6548Z" fill="black"/>
<path d="M33.115 55.7931C32.6609 56.1925 32.4232 56.4862 32.3974 56.5183C32.0722 56.9267 32.1397 57.519 32.5462 57.8466C32.721 57.9876 32.9308 58.0559 33.1399 58.0559C33.4165 58.0559 33.6913 57.9358 33.8792 57.7052C33.8807 57.7032 34.0447 57.5037 34.369 57.2183C34.7626 56.872 34.801 56.2721 34.4546 55.8786C34.1085 55.4854 33.5088 55.4463 33.115 55.7931Z" fill="black"/>
<path d="M52.6909 57.9541C52.2219 57.7194 51.6518 57.9095 51.4173 58.3785C51.1829 58.8475 51.373 59.4177 51.8418 59.6521C52.3987 59.9307 52.9192 60.1698 53.4329 60.3831C53.5518 60.4326 53.6752 60.4559 53.7965 60.4559C54.1686 60.4559 54.5217 60.2359 54.6735 59.8707C54.8746 59.3866 54.6452 58.8312 54.1609 58.6301C53.6888 58.4336 53.2077 58.2124 52.6909 57.9541Z" fill="black"/>
<path d="M46.2988 54.4069C45.8276 54.1764 45.2592 54.3715 45.029 54.8424C44.7985 55.3134 44.9935 55.8819 45.4645 56.1121C45.8913 56.3208 46.3628 56.5708 46.9062 56.8758C47.0533 56.9585 47.2126 56.9975 47.3701 56.9975C47.7021 56.9975 48.0244 56.8231 48.1987 56.513C48.4554 56.0557 48.2929 55.4772 47.8358 55.2207C47.2607 54.8975 46.7578 54.6316 46.2988 54.4069Z" fill="black"/>
<path d="M40.4406 53.1023C39.8273 53.1181 39.2197 53.1749 38.6347 53.271C38.1173 53.3559 37.7669 53.8443 37.8521 54.3615C37.9285 54.8268 38.331 55.157 38.7876 55.157C38.8386 55.157 38.8904 55.1528 38.9425 55.1442C39.4423 55.0621 39.9626 55.0136 40.4895 55.0001C41.0137 54.9864 41.4275 54.5508 41.4139 54.0267C41.4007 53.5026 40.962 53.097 40.4406 53.1023Z" fill="black"/>
<path d="M59.2515 61.6333C59.8558 61.6302 60.4668 61.5823 61.0674 61.4911C61.5858 61.4122 61.9421 60.9282 61.8632 60.41C61.7845 59.8915 61.298 59.536 60.7821 59.614C60.2723 59.6916 59.7541 59.7321 59.2417 59.7347C58.7173 59.7373 58.2947 60.1644 58.2974 60.6887C58.2999 61.2114 58.7245 61.6331 59.2463 61.6331C59.2481 61.6332 59.2497 61.6333 59.2515 61.6333Z" fill="black"/>
<path d="M66.1428 59.501C66.3118 59.501 66.4831 59.4559 66.6379 59.3609C66.8878 59.2075 67.1415 59.0444 67.3914 58.8755C67.8257 58.5823 67.9402 57.9924 67.6467 57.5579C67.3537 57.1236 66.7636 57.0087 66.3291 57.3023C66.102 57.4555 65.872 57.6037 65.6458 57.7425C65.1986 58.0164 65.0585 58.6009 65.3325 59.0478C65.5116 59.34 65.8234 59.501 66.1428 59.501Z" fill="black"/>
<path d="M74.0185 64.5495L69.2185 49.3819C68.7263 47.8267 67.2998 46.782 65.6687 46.782H59.3227C58.7983 46.782 58.3735 47.2068 58.3735 47.7312C58.3735 48.2555 58.7983 48.6804 59.3227 48.6804H65.0319L58.9281 54.2966C58.5423 54.6516 58.5173 55.2521 58.8723 55.638C59.0596 55.8412 59.3148 55.9444 59.5712 55.9444C59.8008 55.9444 60.0311 55.8616 60.2137 55.6938L67.0781 49.3778C67.0832 49.3731 67.0867 49.3675 67.0915 49.3629C67.2295 49.5353 67.3389 49.7343 67.4088 49.9549L72.2087 65.1224C72.3863 65.6834 72.2884 66.2772 71.941 66.7517C71.5935 67.226 71.0568 67.4983 70.4688 67.4983H67.2827L63.7082 63.5344C63.3572 63.1451 62.7573 63.114 62.3676 63.4652C61.9782 63.8162 61.9473 64.4165 62.2984 64.8057L64.7266 67.4982H37.1242L42.1348 60.4423C42.4385 60.0149 42.338 59.4223 41.9105 59.1189C41.4836 58.8157 40.8907 58.9158 40.5872 59.3432L34.796 67.4982H29.5316C28.9435 67.4982 28.4068 67.2259 28.0593 66.7516C27.7117 66.2771 27.614 65.6832 27.7915 65.1224L32.5918 49.9546C32.8329 49.1924 33.5319 48.6804 34.3315 48.6804H40.6778C41.2022 48.6804 41.627 48.2555 41.627 47.7312C41.627 47.2068 41.2022 46.782 40.6778 46.782H34.3315C32.7001 46.782 31.2736 47.8268 30.7817 49.3819L25.9815 64.5497C25.6196 65.6938 25.8188 66.9051 26.5279 67.8733C27.2368 68.8413 28.3317 69.3965 29.5316 69.3965H70.4685C71.6683 69.3965 72.7632 68.8413 73.4722 67.8733C74.1814 66.9051 74.3805 65.6938 74.0185 64.5495Z" fill="black"/>
<path d="M49.7584 71.3799H36.8579C36.3337 71.3799 35.9087 71.8047 35.9087 72.3291C35.9087 72.8534 36.3337 73.2783 36.8579 73.2783H49.7584C50.2828 73.2783 50.7076 72.8534 50.7076 72.3291C50.7076 71.8049 50.2828 71.3799 49.7584 71.3799Z" fill="black"/>
<path d="M55.8335 71.3799H53.7451C53.2207 71.3799 52.7959 71.8047 52.7959 72.3291C52.7959 72.8534 53.2207 73.2783 53.7451 73.2783H55.8335C56.3578 73.2783 56.7828 72.8534 56.7828 72.3291C56.7828 71.8049 56.3578 71.3799 55.8335 71.3799Z" fill="black"/>
<path d="M67.414 71.3799H59.6304C59.106 71.3799 58.6812 71.8047 58.6812 72.3291C58.6812 72.8534 59.106 73.2783 59.6304 73.2783H67.414C67.9384 73.2783 68.3632 72.8534 68.3632 72.3291C68.3632 71.8049 67.9384 71.3799 67.414 71.3799Z" fill="black"/>
</g>
<defs>
<clipPath id="clip0_2046_185">
<rect width="100" height="100" fill="white"/>
</clipPath>
</defs>
</svg>
