<svg width="100" height="100" viewBox="0 0 100 100" fill="none" xmlns="http://www.w3.org/2000/svg">
<g clip-path="url(#clip0_4002_39)">
<circle cx="50" cy="50" r="50" fill="#D9D9D9"/>
<g clip-path="url(#clip1_4002_39)">
<path fill-rule="evenodd" clip-rule="evenodd" d="M85.3658 48.2452L72.0391 34.8803C71.1593 34.0028 69.7283 34.0028 68.8463 34.8803C67.9643 35.7803 67.9643 37.1976 68.8463 38.0976L78.4291 47.7052H21.5715L31.1543 38.0976C32.0363 37.1976 32.0363 35.7803 31.1543 34.8803C30.2723 34.0028 28.8435 34.0028 27.9615 34.8803L14.6348 48.2452C14.1646 48.7177 13.962 49.3477 13.9958 49.9552C13.962 50.5852 14.1646 51.2152 14.6348 51.6877L27.9615 65.0526C28.8435 65.9301 30.2723 65.9301 31.1543 65.0526C32.0363 64.1526 32.0363 62.7352 31.1543 61.8352L21.5715 52.2277H78.4291L68.8463 61.8352C67.9643 62.7352 67.9643 64.1526 68.8463 65.0526C69.7283 65.9301 71.1593 65.9301 72.0391 65.0526L85.3658 51.6877C85.836 51.2152 86.0386 50.5852 86.0048 49.9552C86.0386 49.3477 85.836 48.7177 85.3658 48.2452Z" fill="black"/>
</g>
</g>
<defs>
<clipPath id="clip0_4002_39">
<rect width="100" height="100" fill="white"/>
</clipPath>
<clipPath id="clip1_4002_39">
<rect width="72" height="72" fill="white" transform="translate(14 14)"/>
</clipPath>
</defs>
</svg>
