<svg width="100" height="100" viewBox="0 0 100 100" fill="none" xmlns="http://www.w3.org/2000/svg">
<g clip-path="url(#clip0_2046_241)">
<circle cx="50" cy="50" r="50" fill="#D9D9D9"/>
<path d="M32.686 51.4223C39.1134 51.4223 44.366 46.2043 44.366 39.7423C44.366 33.2803 39.1477 28.0625 32.686 28.0625C26.2243 28.0625 21.0405 33.3151 21.0405 39.7768C21.0405 46.2045 26.2586 51.4223 32.686 51.4223ZM32.0408 40.7331C29.8982 39.9844 28.5623 38.9016 28.5623 36.9781C28.5623 35.2043 29.7371 33.8104 31.8912 33.3728V31.449H33.5038V33.2805C34.8401 33.2805 35.8076 33.557 36.5217 33.937L35.8652 36.2407C35.3353 36.0219 34.4713 35.6532 33.285 35.6532C32.0987 35.6532 31.4535 36.2407 31.4535 36.8279C31.4535 37.6343 32.2022 37.9453 33.8149 38.6018C36.0148 39.4081 37.04 40.5255 37.04 42.3568C37.04 44.188 35.9226 45.5818 33.5615 46.1117V47.9432H31.9488V46.1694C30.5549 46.1694 29.1498 45.8007 28.4703 45.4207L29.0578 43.0593C29.8065 43.428 30.9816 43.8657 32.2256 43.8657C33.5618 43.8657 34.2182 43.2781 34.2182 42.4718C34.2179 41.666 33.5843 41.3319 32.0408 40.7331ZM32.1513 58.7202C28.5583 58.7202 25.6508 61.6277 25.6508 65.2207C25.6508 68.8137 28.5583 71.7212 32.1513 71.7212C35.7443 71.7212 38.6518 68.8137 38.6518 65.2207C38.6518 61.6277 35.7446 58.7202 32.1513 58.7202ZM32.1513 67.7106C30.7864 67.7106 29.6614 66.5856 29.6614 65.2207C29.6614 63.8558 30.7864 62.7308 32.1513 62.7308C33.5162 62.7308 34.6412 63.8558 34.6412 65.2207C34.6412 66.5856 33.5162 67.7106 32.1513 67.7106ZM73.0746 58.7244C69.4816 58.7244 66.5741 61.6319 66.5741 65.2249C66.5741 68.8179 69.4816 71.7254 73.0746 71.7254C76.6676 71.7254 79.5751 68.8179 79.5751 65.2249C79.5751 61.6319 76.6676 58.7244 73.0746 58.7244ZM73.0746 67.7148C71.7097 67.7148 70.5847 66.5898 70.5847 65.2249C70.5847 63.86 71.7097 62.735 73.0746 62.735C74.4395 62.735 75.5645 63.86 75.5645 65.2249C75.5645 66.5898 74.4395 67.7148 73.0746 67.7148ZM14.5625 61.527C14.5625 62.7873 15.5522 63.8091 16.8125 63.8772H23.0982C23.358 63.8091 23.5707 63.6201 23.6179 63.3836C24.3269 59.3178 27.8729 56.498 32.1513 56.498C36.4297 56.498 39.9757 59.3178 40.6847 63.3836C40.732 63.6434 40.9446 63.8091 41.2048 63.8772H42.1033H50.8438V53.7522H14.5625V61.527ZM84.875 59.0959H83.4688V53.1897C83.4688 51.1095 81.9163 49.2522 79.8125 49.2522H73.0625C72.9207 49.2522 72.7534 49.2342 72.6589 49.1397L62.1399 38.9008C61.6671 38.428 61.0919 38.0258 60.4065 38.0022H52.8128V63.8772H64.0628C64.3229 63.8772 64.4942 63.6201 64.5415 63.3836C65.2505 59.3178 68.7965 56.2213 73.0749 56.2213C77.3533 56.2213 80.8992 59.3178 81.6083 63.3836C81.6555 63.6437 81.8026 63.8772 82.0628 63.8772H82.9065C84.254 63.8772 85.4378 62.7218 85.4378 61.3979V59.6488C85.4375 59.3887 85.1588 59.0959 84.875 59.0959ZM67.7188 49.2522H56.1875C55.9037 49.2522 55.625 48.9734 55.625 48.6897V41.3772C55.625 41.0934 55.9037 40.8147 56.1875 40.8147H59.8438C59.9855 40.8147 60.2721 41.0281 60.3905 41.1226L68.002 48.407C68.2858 48.7614 68.1679 49.2522 67.7188 49.2522Z" fill="black"/>
</g>
<defs>
<clipPath id="clip0_2046_241">
<rect width="100" height="100" fill="white"/>
</clipPath>
</defs>
</svg>
