<svg width="100" height="100" viewBox="0 0 100 100" fill="none" xmlns="http://www.w3.org/2000/svg">
<g clip-path="url(#clip0_2046_236)">
<circle cx="50" cy="50" r="50" fill="#D9D9D9"/>
<path d="M60.1055 44.5725C60.0188 43.8531 59.7454 43.1969 59.3252 42.6491L62.2104 24.7434C62.3178 24.0772 61.8904 23.442 61.2329 23.2901L61.2007 23.2828C60.5433 23.1309 59.8808 23.5147 59.6852 24.1605L54.4292 41.5185C53.1339 42.1698 52.2347 43.4974 52.2347 45.0436C52.2347 47.2269 54.0101 49.0034 56.1933 49.0034C56.6001 49.0034 56.9848 48.924 57.3544 48.8097L68.3348 54.5159C68.9389 54.8298 69.6826 54.6338 70.0533 54.0627L70.0699 54.0372C70.4407 53.4664 70.3174 52.7072 69.7847 52.2831L60.1055 44.5725ZM54.238 45.0436C54.238 43.9656 55.1154 43.0882 56.1934 43.0882C57.2724 43.0882 58.1498 43.9656 58.1498 45.0436C58.1498 46.1225 57.2724 47 56.1934 47C55.1154 47 54.238 46.1226 54.238 45.0436ZM86 45.0436C86 58.2975 77.3024 69.5534 65.3166 73.4165L65.316 69.1722C75.052 65.4786 81.9933 56.0585 81.9933 45.0436C81.9933 30.8178 70.4192 19.2438 56.1934 19.2438C41.9675 19.2438 30.3935 30.8178 30.3935 45.0436C30.3935 46.4707 30.5152 47.8694 30.7392 49.2342H26.6873C26.4936 47.8641 26.3868 46.4664 26.3868 45.0436C26.3868 28.608 39.7578 15.2371 56.1934 15.2371C72.6291 15.2371 86 28.608 86 45.0436ZM61.3894 66.2822L52.2141 57.2071C51.6332 56.626 50.8419 56.3054 50.0305 56.3054H45.4027V54.5726C45.4027 53.2804 44.3511 52.2387 43.0588 52.2387H16.3342C15.0421 52.2387 14.0004 53.2804 14.0004 54.5726V70.1985H62.3111V68.4958C62.3109 67.6646 61.9804 66.8632 61.3894 66.2822ZM57.3927 66.5828H48.5079C48.3075 66.5828 48.1473 66.4225 48.1473 66.2221V59.3607C48.1473 59.1604 48.3074 59 48.5079 59H50.2007C50.2909 59 50.3911 59.0402 50.4612 59.1002L57.6432 65.9619C57.8835 66.1819 57.7232 66.5828 57.3927 66.5828ZM62.312 71.4895V76.6591C62.312 77.9486 61.2666 78.9941 59.9769 78.9941H57.4785C57.0271 75.8962 54.3573 73.5146 51.1351 73.5146C47.9204 73.5146 45.2507 75.8962 44.7993 78.9941H32.1354C31.684 75.8962 29.0142 73.5146 25.7996 73.5146C22.5851 73.5146 19.9153 75.8962 19.4639 78.9941H16.3351C15.0454 78.9939 14 77.9486 14 76.6592V71.4895H62.312ZM51.1422 75.0768C48.4679 75.0768 46.2942 77.2405 46.2942 79.9148C46.2942 82.5894 48.4679 84.7632 51.1422 84.7632C53.8167 84.7632 55.9804 82.5894 55.9804 79.9148C55.9804 77.2405 53.8167 75.0768 51.1422 75.0768ZM51.1422 82.3391C49.8001 82.3391 48.7182 81.2573 48.7182 79.9149C48.7182 78.5827 49.8 77.4909 51.1422 77.4909C52.4745 77.4909 53.5564 78.5826 53.5564 79.9149C53.5564 81.2573 52.4745 82.3391 51.1422 82.3391ZM25.8 75.0768C23.1256 75.0768 20.9519 77.2405 20.9519 79.9148C20.9519 82.5894 23.1256 84.7632 25.8 84.7632C28.4745 84.7632 30.6381 82.5894 30.6381 79.9148C30.6381 77.2405 28.4745 75.0768 25.8 75.0768ZM25.8 82.3391C24.4578 82.3391 23.376 81.2573 23.376 79.9149C23.376 78.5827 24.4578 77.4909 25.8 77.4909C27.1322 77.4909 28.224 78.5826 28.224 79.9149C28.224 81.2573 27.1322 82.3391 25.8 82.3391Z" fill="black"/>
</g>
<defs>
<clipPath id="clip0_2046_236">
<rect width="100" height="100" fill="white"/>
</clipPath>
</defs>
</svg>
