<svg width="100" height="100" viewBox="0 0 100 100" fill="none" xmlns="http://www.w3.org/2000/svg">
<g clip-path="url(#clip0_2046_175)">
<circle cx="50" cy="50" r="50" fill="#D9D9D9"/>
<path d="M57.8107 41.7744L50.0792 40.3499C49.0934 40.1686 48.1481 40.8196 47.9669 41.8053L46.5423 49.5368C46.3611 50.5226 46.8821 50.86 47.7082 50.2913L49.917 48.7703L53.0043 53.2523C53.5729 54.0772 54.7029 54.2857 55.5278 53.7171L58.5162 51.6585C59.3411 51.09 59.5496 49.9599 58.9811 49.135L55.8937 44.6531L58.1025 43.132C58.9265 42.5635 58.7966 41.9555 57.8107 41.7744Z" fill="#010002"/>
<path d="M52.2033 60.0409C52.9281 61.0936 54.3705 61.3593 55.423 60.6334L65.4992 53.691C66.5518 52.9663 66.8176 51.5239 66.0917 50.4714C65.3669 49.4187 63.9245 49.153 62.872 49.8789L52.7958 56.8213C51.7443 57.546 51.4785 58.9885 52.2033 60.0409Z" fill="#010002"/>
<path d="M85.9484 36.1183C85.934 36.0634 85.9186 36.0098 85.8995 35.9563C85.8805 35.9049 85.8602 35.8549 85.8363 35.8061C85.8101 35.7512 85.7815 35.6976 85.7494 35.6452C85.735 35.6213 85.7255 35.5964 85.7101 35.5725C85.6957 35.5511 85.6766 35.5355 85.6624 35.5153C85.6255 35.4653 85.5862 35.4188 85.5444 35.3746C85.5074 35.3342 85.4705 35.296 85.43 35.2591C85.387 35.221 85.343 35.1864 85.2977 35.1531C85.2524 35.1196 85.2071 35.0875 85.1594 35.0589C85.1118 35.0303 85.0616 35.0052 85.0116 34.9815C84.9603 34.9564 84.9079 34.9338 84.8531 34.9148C84.8031 34.8969 84.7506 34.8827 84.6992 34.8695C84.6397 34.8539 84.5788 34.8409 84.5168 34.8325C84.4917 34.829 84.4692 34.8206 84.4453 34.8181C84.4178 34.8158 84.3928 34.8193 84.3653 34.8181C84.2998 34.8146 84.2366 34.8146 84.1722 34.8181C84.1209 34.8205 84.0709 34.8253 84.0209 34.8325C83.96 34.8409 83.9016 34.8539 83.8433 34.8683C83.7908 34.8813 83.7396 34.8969 83.6883 34.9148C83.6346 34.9338 83.5822 34.9566 83.5309 34.9803C83.4784 35.0054 83.4261 35.0328 83.3759 35.0638C83.3508 35.0793 83.3246 35.0877 83.2997 35.1042L76.7698 39.5123L60.8979 16.4737L59.9133 15.0444L58.4841 16.029L36.6021 31.1046L33.3395 26.3686C33.2346 26.2173 33.1059 26.0944 32.9676 25.9872C32.9473 25.9717 32.9283 25.9538 32.9067 25.9395C32.7422 25.824 32.5551 25.7369 32.35 25.682C32.3357 25.6785 32.325 25.6665 32.3096 25.663C32.3 25.6606 32.2917 25.6641 32.2821 25.6618C32.0688 25.6153 31.8566 25.6105 31.6516 25.6416C31.636 25.6439 31.6195 25.6439 31.6039 25.6464C31.4001 25.6834 31.2081 25.7596 31.0329 25.8621C31.015 25.8728 30.9971 25.88 30.9804 25.8907C30.9625 25.9026 30.9422 25.9098 30.9243 25.9217L21.3929 32.4897C20.6038 33.0333 20.4046 34.1155 20.9483 34.9046C21.4919 35.6938 22.5741 35.8929 23.3632 35.3493L29.1791 31.3429L25.876 45.2765L14.751 52.9413C13.9619 53.4849 13.7627 54.566 14.3063 55.3551C14.85 56.1442 15.9322 56.3434 16.7213 55.7997L26.9681 48.7406L40.8517 68.8943C41.3489 68.3781 41.9031 67.9048 42.5146 67.4829C42.8781 67.2326 43.2537 67.0157 43.6351 66.8154L29.2796 45.9775L32.6972 31.5576L33.9929 33.4398L31.3526 43.2299C31.2679 43.5411 31.281 43.8545 31.3621 44.1443L31.2786 44.2015L46.2017 65.8618C46.8383 65.7139 47.4808 65.627 48.1269 65.5959C48.86 65.5601 49.5907 65.5971 50.3131 65.7079L36.1089 45.0918L57.0361 30.6742L71.4537 51.6014L50.842 65.8009C51.5621 65.9475 52.2654 66.1704 52.9448 66.4601C53.542 66.7152 54.1178 67.0216 54.665 67.3828L75.7258 52.8734L76.2813 52.4908L76.2027 52.3764C76.3421 52.1582 76.4386 51.9079 76.4686 51.6326L77.3804 43.2896L82.1712 40.0568L81.09 50.7481L55.7449 68.2065C56.4338 68.8001 57.0669 69.4795 57.6057 70.2628C57.744 70.4643 57.8632 70.6728 57.9859 70.879L84.3822 52.6933L85.9974 36.7166C85.9997 36.688 85.9962 36.6618 85.9974 36.6332C86.0009 36.57 86.0009 36.5068 85.9974 36.4449C85.995 36.3924 85.989 36.3389 85.9818 36.2864C85.9735 36.2303 85.9628 36.1743 85.9484 36.1183ZM55.9034 27.2377L35.4648 41.3179L35.9869 39.3844L56.2347 25.4341L55.9034 27.2377ZM56.8141 22.2919L36.8965 36.0133L37.1933 34.913L57.0025 21.2655L56.8141 22.2919ZM73.3463 48.2304L59.3173 27.8671L59.6046 26.3056L64.4275 33.3063L65.1451 30.9163L60.1028 23.5973L60.4163 21.8964L74.0591 41.6995L73.3463 48.2304Z" fill="#010002"/>
<path d="M53.5135 83.4478C57.1944 80.9111 58.259 76.0035 56.0799 72.1926C55.9607 71.9841 55.838 71.7778 55.6997 71.5764C55.1537 70.7836 54.4922 70.1186 53.7603 69.5738C53.3812 69.2914 52.9854 69.0386 52.5707 68.8264C51.9306 68.4986 51.2535 68.2625 50.5585 68.104C50.2927 68.0431 50.0258 67.9966 49.7562 67.9622C49.0566 67.8715 48.3461 67.8644 47.6392 67.9491C46.7249 68.06 45.8226 68.3245 44.9619 68.7417C44.5745 68.9289 44.193 69.1387 43.8272 69.3902C43.2085 69.817 42.672 70.3153 42.2036 70.86C39.7338 73.7292 39.3917 77.9991 41.6398 81.2629C44.3158 85.144 49.631 86.1226 53.5135 83.4478ZM45.2515 75.2812C45.4912 74.5599 45.9453 73.9043 46.6187 73.4406C46.9978 73.1796 47.4115 73.009 47.8334 72.909C48.228 72.8148 48.6297 72.797 49.0267 72.8363C50.0482 72.9388 51.0209 73.4561 51.6491 74.3668C51.7898 74.5706 51.9055 74.784 51.9996 75.0034C52.66 76.553 52.1642 78.4043 50.7229 79.3972C49.078 80.5308 46.8262 80.1161 45.6925 78.471C45.0226 77.4995 44.9057 76.3194 45.2515 75.2812Z" fill="#010002"/>
</g>
<defs>
<clipPath id="clip0_2046_175">
<rect width="100" height="100" fill="white"/>
</clipPath>
</defs>
</svg>
