<svg width="20" height="20" viewBox="0 0 20 20" fill="none" xmlns="http://www.w3.org/2000/svg">
<path d="M18.3334 13.4915C18.3334 16.5248 16.525 18.3332 13.4917 18.3332H12.5C12.0417 18.3332 11.6667 17.9582 11.6667 17.4998V12.6915C11.6667 12.4665 11.85 12.2748 12.075 12.2748L13.5417 12.2498C13.6584 12.2415 13.7584 12.1582 13.7834 12.0415L14.075 10.4498C14.1 10.2998 13.9834 10.1582 13.825 10.1582L12.05 10.1832C11.8167 10.1832 11.6334 9.99985 11.625 9.77485L11.5917 7.73317C11.5917 7.59984 11.7 7.48318 11.8417 7.48318L13.8417 7.44984C13.9833 7.44984 14.0917 7.34152 14.0917 7.19985L14.0583 5.19983C14.0583 5.05816 13.95 4.94984 13.8084 4.94984L11.5583 4.98318C10.175 5.00818 9.07503 6.1415 9.10003 7.52484L9.14169 9.8165C9.15002 10.0498 8.9667 10.2332 8.73336 10.2415L7.73335 10.2582C7.59169 10.2582 7.48336 10.3665 7.48336 10.5082L7.50836 12.0915C7.50836 12.2332 7.61668 12.3415 7.75835 12.3415L8.75836 12.3248C8.99169 12.3248 9.17501 12.5082 9.18334 12.7332L9.25834 17.4832C9.26667 17.9498 8.89167 18.3332 8.42501 18.3332H6.50835C3.47502 18.3332 1.66669 16.5248 1.66669 13.4832V6.50817C1.66669 3.47484 3.47502 1.6665 6.50835 1.6665H13.4917C16.525 1.6665 18.3334 3.47484 18.3334 6.50817V13.4915Z" fill="white"/>
</svg>
