<svg width="115" height="115" viewBox="0 0 115 115" fill="none" xmlns="http://www.w3.org/2000/svg">
<path fill-rule="evenodd" clip-rule="evenodd" d="M57.5 8.625C30.505 8.625 8.625 30.505 8.625 57.5C8.625 84.495 30.505 106.375 57.5 106.375C84.495 106.375 106.375 84.495 106.375 57.5C106.375 30.505 84.495 8.625 57.5 8.625ZM0 57.5C0 25.7415 25.7415 0 57.5 0C89.2585 0 115 25.7415 115 57.5C115 89.2585 89.2585 115 57.5 115C25.7415 115 0 89.2585 0 57.5Z" fill="#6E9442"/>
<path fill-rule="evenodd" clip-rule="evenodd" d="M57.7595 30.4132V60.147L81.0374 74.0335L76.6187 81.4406L49.1345 65.0449V30.4132H57.7595Z" fill="#6E9442"/>
</svg>
