<svg width="101" height="115" viewBox="0 0 101 115" fill="none" xmlns="http://www.w3.org/2000/svg">
<path fill-rule="evenodd" clip-rule="evenodd" d="M75.2469 38.3333L46.286 67.0686L29.0437 49.9423L35.243 43.8042L46.2893 54.7762L69.0509 32.1919L75.2469 38.3333Z" fill="#6E9442"/>
<path fill-rule="evenodd" clip-rule="evenodd" d="M0.174438 1.03125H100.833V57.791C100.833 78.7829 88.0961 92.8849 76.0379 101.497C69.982 105.822 63.9543 108.876 59.4537 110.848C57.1972 111.837 55.3086 112.561 53.9705 113.042C53.301 113.282 52.7682 113.462 52.3946 113.585C52.2078 113.646 52.0608 113.693 51.9562 113.726L51.8317 113.765L51.794 113.776L51.7814 113.78C51.7795 113.78 51.773 113.782 50.5037 109.625C49.2343 113.782 49.2326 113.782 49.2307 113.781L49.2134 113.776L49.1757 113.765L49.0511 113.726C48.9466 113.693 48.7995 113.646 48.6127 113.585C48.2392 113.462 47.7063 113.282 47.0369 113.042C45.6988 112.561 43.8101 111.837 41.5537 110.848C37.0531 108.876 31.0253 105.822 24.9694 101.497C12.9113 92.8849 0.174438 78.7829 0.174438 57.791V1.03125ZM50.5037 109.625L49.2307 113.781L50.5037 114.163L51.773 113.782L50.5037 109.625ZM50.5037 105.045C50.6525 104.993 50.8134 104.936 50.9856 104.874C52.1604 104.452 53.8615 103.801 55.9128 102.902C60.0277 101.098 65.4872 98.3258 70.9186 94.4469C81.835 86.6507 92.0727 74.8356 92.0727 57.791V9.71875H8.93464V57.791C8.93464 74.8356 19.1724 86.6507 30.0888 94.4469C35.5202 98.3258 40.9797 101.098 45.0946 102.902C47.1459 103.801 48.847 104.452 50.0217 104.874C50.194 104.936 50.3548 104.993 50.5037 105.045Z" fill="#6E9442"/>
</svg>
