<svg width="613" height="56" viewBox="0 0 613 56" fill="none" xmlns="http://www.w3.org/2000/svg">
<mask id="path-1-inside-1_111_158" fill="white">
<path d="M0 5C0 2.23858 2.23858 0 5 0H608C610.761 0 613 2.23858 613 5V56H0V5Z"/>
</mask>
<path d="M0 5C0 2.23858 2.23858 0 5 0H608C610.761 0 613 2.23858 613 5V56H0V5Z" fill="#F4F4F4"/>
<path d="M0 0H613H0ZM613 58H0V54H613V58ZM0 56V0V56ZM613 0V56V0Z" fill="#8E9F7A" mask="url(#path-1-inside-1_111_158)"/>
<line x1="13.5" y1="19" x2="13.5" y2="35" stroke="black"/>
</svg>
