<svg width="20" height="20" viewBox="0 0 20 20" fill="none" xmlns="http://www.w3.org/2000/svg">
<path d="M13.4917 1.6665H6.50832C3.47499 1.6665 1.66666 3.47484 1.66666 6.50817V13.4832C1.66666 16.5248 3.47499 18.3332 6.50832 18.3332H13.4833C16.5167 18.3332 18.325 16.5248 18.325 13.4915V6.50817C18.3333 3.47484 16.525 1.6665 13.4917 1.6665ZM9.99999 13.2332C8.21666 13.2332 6.76666 11.7832 6.76666 9.99984C6.76666 8.2165 8.21666 6.7665 9.99999 6.7665C11.7833 6.7665 13.2333 8.2165 13.2333 9.99984C13.2333 11.7832 11.7833 13.2332 9.99999 13.2332ZM14.9333 5.73317C14.8917 5.83317 14.8333 5.92484 14.7583 6.00817C14.675 6.08317 14.5833 6.1415 14.4833 6.18317C14.3833 6.22484 14.275 6.24984 14.1667 6.24984C13.9417 6.24984 13.7333 6.1665 13.575 6.00817C13.5 5.92484 13.4417 5.83317 13.4 5.73317C13.3583 5.63317 13.3333 5.52484 13.3333 5.4165C13.3333 5.30817 13.3583 5.19984 13.4 5.09984C13.4417 4.9915 13.5 4.90817 13.575 4.82484C13.7667 4.63317 14.0583 4.5415 14.325 4.59984C14.3833 4.60817 14.4333 4.62484 14.4833 4.64984C14.5333 4.6665 14.5833 4.6915 14.6333 4.72484C14.675 4.74984 14.7167 4.7915 14.7583 4.82484C14.8333 4.90817 14.8917 4.9915 14.9333 5.09984C14.975 5.19984 15 5.30817 15 5.4165C15 5.52484 14.975 5.63317 14.9333 5.73317Z" fill="white"/>
</svg>
