<svg width="42" height="39" viewBox="0 0 42 39" fill="none" xmlns="http://www.w3.org/2000/svg">
<path d="M21.0001 19.5C21.9626 19.5 22.7869 19.1815 23.4729 18.5445C24.1577 17.9086 24.5001 17.1438 24.5001 16.25C24.5001 15.3563 24.1577 14.5909 23.4729 13.9539C22.7869 13.318 21.9626 13 21.0001 13C20.0376 13 19.214 13.318 18.5291 13.9539C17.8431 14.5909 17.5001 15.3563 17.5001 16.25C17.5001 17.1438 17.8431 17.9086 18.5291 18.5445C19.214 19.1815 20.0376 19.5 21.0001 19.5ZM21.0001 35.1406C20.7668 35.1406 20.5335 35.1 20.3001 35.0188C20.0668 34.9375 19.8626 34.8292 19.6876 34.6938C15.4293 31.2 12.2501 27.957 10.1501 24.9649C8.05012 21.9716 7.00012 19.175 7.00012 16.575C7.00012 12.5125 8.40771 9.27604 11.2229 6.86563C14.0369 4.45521 17.296 3.25 21.0001 3.25C24.7043 3.25 27.9634 4.45521 30.7774 6.86563C33.5925 9.27604 35.0001 12.5125 35.0001 16.575C35.0001 19.175 33.9501 21.9716 31.8501 24.9649C29.7501 27.957 26.571 31.2 22.3126 34.6938C22.1376 34.8292 21.9335 34.9375 21.7001 35.0188C21.4668 35.1 21.2335 35.1406 21.0001 35.1406Z" fill="#FF5F5F"/>
</svg>
