<svg width="20" height="20" viewBox="0 0 20 20" fill="none" xmlns="http://www.w3.org/2000/svg">
<path d="M19.1923 6.06705L16.8564 8.40299C16.3845 13.8733 11.7713 18.1249 6.25016 18.1249C5.11579 18.1249 4.18063 17.9452 3.47047 17.5905C2.89782 17.3038 2.66344 16.9967 2.60485 16.9092C2.5526 16.8309 2.51874 16.7417 2.50579 16.6485C2.49283 16.5552 2.50113 16.4602 2.53005 16.3706C2.55898 16.2809 2.60778 16.199 2.67281 16.1309C2.73785 16.0628 2.81744 16.0102 2.90563 15.9772C2.92594 15.9694 4.79938 15.2499 5.98922 13.8803C5.32937 13.3378 4.75335 12.7007 4.27985 11.9897C3.3111 10.5514 2.22672 8.05299 2.5611 4.3194C2.5717 4.20076 2.61597 4.08762 2.68872 3.99331C2.76146 3.89899 2.85964 3.82743 2.97169 3.78704C3.08374 3.74665 3.205 3.73912 3.32119 3.76534C3.43738 3.79156 3.54365 3.85043 3.6275 3.93502C3.65485 3.96237 6.2275 6.52096 9.37282 7.35065V6.87487C9.37162 6.37595 9.47026 5.88185 9.66293 5.42164C9.8556 4.96143 10.1384 4.54443 10.4947 4.19518C10.8407 3.84965 11.2524 3.57693 11.7055 3.3931C12.1587 3.20928 12.644 3.11807 13.133 3.12487C13.7889 3.13133 14.4319 3.30741 14.9997 3.63596C15.5674 3.96452 16.0404 4.43438 16.3728 4.99987H18.7502C18.8738 4.99977 18.9948 5.03637 19.0977 5.10504C19.2005 5.17371 19.2807 5.27136 19.3281 5.38562C19.3754 5.49989 19.3878 5.62563 19.3636 5.74693C19.3395 5.86823 19.2799 5.97964 19.1923 6.06705Z" fill="white"/>
</svg>
