<svg width="390" height="406" viewBox="0 0 390 406" fill="none" xmlns="http://www.w3.org/2000/svg">
<path d="M0 82C0 36.7127 36.7127 0 82 0H307.668C352.955 0 389.668 36.7127 389.668 82V323.691C389.668 368.979 352.955 405.691 307.668 405.691H81.9999C36.7126 405.691 0 368.979 0 323.691V82Z" fill="white"/>
<path d="M0 59.4048C0 26.5965 26.7397 0 59.7248 0H329.943C362.928 0 389.668 26.5964 389.668 59.4048V346.287C389.668 379.095 362.928 405.691 329.943 405.691H59.7248C26.7397 405.691 0 379.095 0 346.287V59.4048Z" fill="white"/>
</svg>
