<svg width="389" height="406" viewBox="0 0 389 406" fill="none" xmlns="http://www.w3.org/2000/svg">
<path d="M0 82C0 36.7127 36.7127 0 82 0H306.64C351.927 0 388.64 36.7127 388.64 82V323.691C388.64 368.979 351.927 405.691 306.64 405.691H82C36.7126 405.691 0 368.979 0 323.691V82Z" fill="white"/>
<path d="M0 59.4048C0 26.5965 26.6691 0 59.5672 0H329.072C361.97 0 388.64 26.5964 388.64 59.4048V346.287C388.64 379.095 361.97 405.691 329.072 405.691H59.5672C26.6691 405.691 0 379.095 0 346.287V59.4048Z" fill="white"/>
</svg>
